<svg xmlns="http://www.w3.org/2000/svg" viewBox="0 0 256 256">
  <defs>
    <linearGradient id="cw" x1="0" y1="0" x2="1" y2="1">
      <stop offset="0%" stop-color="#f43f5e"/>
      <stop offset="100%" stop-color="#be123c"/>
    </linearGradient>
  </defs>
  <circle cx="128" cy="128" r="128" fill="url(#cw)"/>
  <path fill="#ffffff" d="M128 56c8 0 14 6 14 14v8h22a8 8 0 010 16h-22v18h22a8 8 0 010 16h-22v32c0 22-18 40-40 40h-12a8 8 0 010-16h12c14 0 24-10 24-24v-32H86a8 8 0 010-16h40v-18H86a8 8 0 010-16h40v-8c0-8 6-14 14-14h-12z"/>
  <text x="128" y="222" text-anchor="middle" font-family="-apple-system, system-ui, sans-serif" font-size="22" font-weight="700" fill="#ffffff" opacity="0.85">FIN</text>
</svg>
